<svg width="825" height="242" viewBox="0 0 825 242" fill="none" xmlns="http://www.w3.org/2000/svg">
<g filter="url(#filter0_d_40_172)">
<path d="M9.28563 187V49.1H78.2356C86.9036 49.1 93.9956 51.5297 99.5116 56.389C105.028 61.2483 107.786 67.9463 107.786 76.483V110.367C107.786 118.641 105.29 125.208 100.3 130.067C95.309 134.926 88.6766 137.356 80.4026 137.356H38.8356V187H9.28563ZM67.7946 107.018C71.472 107.018 73.9673 106.69 75.2806 106.033C77.2506 104.982 78.2356 102.815 78.2356 99.532V85.939C77.8416 81.8677 75.2806 79.5037 70.5526 78.847H38.8356V107.018H67.7946ZM121.83 158.238V79.044C121.83 77.468 122.027 75.4323 122.421 72.937C124.916 57.0457 134.306 49.1 150.592 49.1H211.859V78.847H158.275C157.881 78.847 157.29 79.044 156.502 79.438C153.087 80.4887 151.38 83.181 151.38 87.515V102.881H211.859V132.628H151.38V147.994C151.38 153.641 153.941 156.728 159.063 157.253H211.859V187H154.729C132.796 187 121.83 177.413 121.83 158.238ZM228.602 187V49.1H297.552C306.22 49.1 313.312 51.5297 318.828 56.389C324.344 61.2483 327.102 67.9463 327.102 76.483V110.367C327.102 118.641 324.607 125.208 319.616 130.067C314.625 134.926 307.993 137.356 299.719 137.356H258.152V187H228.602ZM287.111 107.018C290.788 107.018 293.284 106.69 294.597 106.033C296.567 104.982 297.552 102.815 297.552 99.532V85.939C297.158 81.8677 294.597 79.5037 289.869 78.847H258.152V107.018H287.111ZM341.146 158.238V79.044C341.146 77.468 341.343 75.4323 341.737 72.937C344.232 57.0457 353.623 49.1 369.908 49.1H431.175V78.847H377.591C377.197 78.847 376.606 79.044 375.818 79.438C372.403 80.4887 370.696 83.181 370.696 87.515V102.881H431.175V132.628H370.696V147.994C370.696 153.641 373.257 156.728 378.379 157.253H431.175V187H374.045C352.112 187 341.146 177.413 341.146 158.238ZM447.918 156.268V80.423C447.918 68.4717 450.282 60.2633 455.01 55.798C459.738 51.3327 468.144 49.1 480.226 49.1H538.144V78.847H484.363C480.555 79.241 478.256 81.2767 477.468 84.954V145.236C477.468 149.57 477.928 152.459 478.847 153.904C480.161 156.137 482.656 157.253 486.333 157.253H538.144V187H475.892C472.609 187 469.129 186.278 465.451 184.833C453.763 180.236 447.918 170.715 447.918 156.268ZM553.344 78.847C553.344 76.6143 553.607 74.1847 554.132 71.558C555.84 63.4153 559.254 57.571 564.376 54.025C569.104 50.7417 575.802 49.1 584.47 49.1H619.536C640.156 49.1 650.465 59.0157 650.465 78.847V157.253C650.465 177.084 640.09 187 619.339 187H584.47C575.408 187 568.645 185.49 564.179 182.469C559.189 178.923 555.905 172.947 554.329 164.542C553.804 161.653 553.541 159.289 553.541 157.45L553.344 78.847ZM583.091 147.797C583.091 154.101 586.375 157.253 592.941 157.253H611.065C614.611 157.253 617.107 156.728 618.551 155.677C620.127 154.495 620.915 152.197 620.915 148.782V88.303C620.915 84.757 620.193 82.3273 618.748 81.014C617.304 79.5693 614.743 78.847 611.065 78.847H592.941C589.264 78.847 586.769 79.5037 585.455 80.817C584.142 82.1303 583.485 84.6257 583.485 88.303L583.091 147.797ZM668.389 187V49.1H697.939V187H668.389ZM716.1 187V76.483C716.1 68.4717 718.136 61.7737 722.207 56.389C726.672 50.479 732.779 47.524 740.528 47.524C743.811 47.524 747.095 48.115 750.378 49.297C758.389 52.1863 763.84 59.147 766.729 70.179L787.611 149.964V49.1H815.782V163.163C815.782 170.255 813.484 176.296 808.887 181.287C804.422 186.146 798.709 188.707 791.748 188.97C778.615 189.364 769.881 181.55 765.547 165.527L744.468 86.53V187H716.1Z" fill="#003805"/>
<path d="M9.28563 176V38.1H78.2356C86.9036 38.1 93.9956 40.5297 99.5116 45.389C105.028 50.2483 107.786 56.9463 107.786 65.483V99.367C107.786 107.641 105.29 114.208 100.3 119.067C95.309 123.926 88.6766 126.356 80.4026 126.356H38.8356V176H9.28563ZM67.7946 96.018C71.472 96.018 73.9673 95.6897 75.2806 95.033C77.2506 93.9823 78.2356 91.8153 78.2356 88.532V74.939C77.8416 70.8677 75.2806 68.5037 70.5526 67.847H38.8356V96.018H67.7946ZM121.83 147.238V68.044C121.83 66.468 122.027 64.4323 122.421 61.937C124.916 46.0457 134.306 38.1 150.592 38.1H211.859V67.847H158.275C157.881 67.847 157.29 68.044 156.502 68.438C153.087 69.4887 151.38 72.181 151.38 76.515V91.881H211.859V121.628H151.38V136.994C151.38 142.641 153.941 145.728 159.063 146.253H211.859V176H154.729C132.796 176 121.83 166.413 121.83 147.238ZM228.602 176V38.1H297.552C306.22 38.1 313.312 40.5297 318.828 45.389C324.344 50.2483 327.102 56.9463 327.102 65.483V99.367C327.102 107.641 324.607 114.208 319.616 119.067C314.625 123.926 307.993 126.356 299.719 126.356H258.152V176H228.602ZM287.111 96.018C290.788 96.018 293.284 95.6897 294.597 95.033C296.567 93.9823 297.552 91.8153 297.552 88.532V74.939C297.158 70.8677 294.597 68.5037 289.869 67.847H258.152V96.018H287.111ZM341.146 147.238V68.044C341.146 66.468 341.343 64.4323 341.737 61.937C344.232 46.0457 353.623 38.1 369.908 38.1H431.175V67.847H377.591C377.197 67.847 376.606 68.044 375.818 68.438C372.403 69.4887 370.696 72.181 370.696 76.515V91.881H431.175V121.628H370.696V136.994C370.696 142.641 373.257 145.728 378.379 146.253H431.175V176H374.045C352.112 176 341.146 166.413 341.146 147.238ZM447.918 145.268V69.423C447.918 57.4717 450.282 49.2633 455.01 44.798C459.738 40.3327 468.144 38.1 480.226 38.1H538.144V67.847H484.363C480.555 68.241 478.256 70.2767 477.468 73.954V134.236C477.468 138.57 477.928 141.459 478.847 142.904C480.161 145.137 482.656 146.253 486.333 146.253H538.144V176H475.892C472.609 176 469.129 175.278 465.451 173.833C453.763 169.236 447.918 159.715 447.918 145.268ZM553.344 67.847C553.344 65.6143 553.607 63.1847 554.132 60.558C555.84 52.4153 559.254 46.571 564.376 43.025C569.104 39.7417 575.802 38.1 584.47 38.1H619.536C640.156 38.1 650.465 48.0157 650.465 67.847V146.253C650.465 166.084 640.09 176 619.339 176H584.47C575.408 176 568.645 174.49 564.179 171.469C559.189 167.923 555.905 161.947 554.329 153.542C553.804 150.653 553.541 148.289 553.541 146.45L553.344 67.847ZM583.091 136.797C583.091 143.101 586.375 146.253 592.941 146.253H611.065C614.611 146.253 617.107 145.728 618.551 144.677C620.127 143.495 620.915 141.197 620.915 137.782V77.303C620.915 73.757 620.193 71.3273 618.748 70.014C617.304 68.5693 614.743 67.847 611.065 67.847H592.941C589.264 67.847 586.769 68.5037 585.455 69.817C584.142 71.1303 583.485 73.6257 583.485 77.303L583.091 136.797ZM668.389 176V38.1H697.939V176H668.389ZM716.1 176V65.483C716.1 57.4717 718.136 50.7737 722.207 45.389C726.672 39.479 732.779 36.524 740.528 36.524C743.811 36.524 747.095 37.115 750.378 38.297C758.389 41.1863 763.84 48.147 766.729 59.179L787.611 138.964V38.1H815.782V152.163C815.782 159.255 813.484 165.296 808.887 170.287C804.422 175.146 798.709 177.707 791.748 177.97C778.615 178.364 769.881 170.55 765.547 154.527L744.468 75.53V176H716.1Z" fill="#8BFD01"/>
</g>
<defs>
<filter id="filter0_d_40_172" x="5.28564" y="36.5239" width="814.497" height="161.037" filterUnits="userSpaceOnUse" color-interpolation-filters="sRGB">
<feFlood flood-opacity="0" result="BackgroundImageFix"/>
<feColorMatrix in="SourceAlpha" type="matrix" values="0 0 0 0 0 0 0 0 0 0 0 0 0 0 0 0 0 0 127 0" result="hardAlpha"/>
<feOffset dy="4"/>
<feGaussianBlur stdDeviation="2"/>
<feComposite in2="hardAlpha" operator="out"/>
<feColorMatrix type="matrix" values="0 0 0 0 0 0 0 0 0 0 0 0 0 0 0 0 0 0 0.25 0"/>
<feBlend mode="normal" in2="BackgroundImageFix" result="effect1_dropShadow_40_172"/>
<feBlend mode="normal" in="SourceGraphic" in2="effect1_dropShadow_40_172" result="shape"/>
</filter>
</defs>
</svg>
