<svg width="751" height="184" viewBox="0 0 751 184" fill="none" xmlns="http://www.w3.org/2000/svg">
<path d="M13.6268 62.297V40.1H79.9238V62.297H57.7268V143H35.5298V62.297H13.6268ZM112.07 123.449H129.416C130.494 123.449 131.474 122.861 132.356 121.685C133.336 120.411 133.826 119.186 133.826 118.01V90.668C133.826 89.59 133.336 88.463 132.356 87.287C131.474 86.013 130.494 85.376 129.416 85.376H112.07C110.894 85.376 109.865 85.964 108.983 87.14C108.101 88.316 107.66 89.492 107.66 90.668V118.157C107.66 119.333 108.101 120.509 108.983 121.685C109.865 122.861 110.894 123.449 112.07 123.449ZM88.1087 125.654V83.171C88.1087 82.289 88.2557 81.113 88.5497 79.643C90.4117 70.431 96.7327 65.825 107.513 65.825H133.826C139.608 65.825 144.263 67.295 147.791 70.235C151.417 73.175 153.23 77.487 153.23 83.171V125.654C153.23 131.338 151.417 135.65 147.791 138.59C144.263 141.53 139.608 143 133.826 143H107.513C96.0467 143 89.7257 138.394 88.5497 129.182L88.1087 125.654ZM166.777 143V37.013H186.328V143H166.777ZM188.827 96.548L207.055 65.825H229.693L207.79 103.163L231.898 143H208.819L188.386 108.896C187.014 106.642 186.573 104.094 187.063 101.252C187.357 99.586 187.945 98.018 188.827 96.548ZM240.277 83.906C240.277 82.632 240.424 81.309 240.718 79.937C242.776 70.529 248.999 65.825 259.387 65.825H285.994C296.774 65.825 302.85 70.97 304.222 81.26C304.32 81.946 304.369 83.024 304.369 84.494V99.929L260.122 116.687V118.01C260.122 121.636 261.396 123.449 263.944 123.449H304.222V143H261.298C256.202 143 252.331 142.265 249.685 140.795C243.413 137.365 240.277 131.436 240.277 123.008V83.906ZM284.524 90.227V89.492C284.132 87.924 282.907 86.944 280.849 86.552C280.555 86.454 280.212 86.405 279.82 86.405H266.149C263.307 86.405 261.347 87.385 260.269 89.345C259.975 89.835 259.828 90.521 259.828 91.403V99.341L284.524 90.227ZM316.935 143V84.2C316.935 83.22 317.033 82.044 317.229 80.672C318.699 70.774 324.726 65.825 335.31 65.825H362.505C373.089 65.825 379.116 70.774 380.586 80.672C380.782 82.044 380.88 83.22 380.88 84.2V143H361.329V90.815C361.329 90.325 361.28 89.933 361.182 89.639C360.79 86.797 358.683 85.376 354.861 85.376H342.807C338.985 85.376 336.878 86.797 336.486 89.639V143H316.935ZM418.415 123.449H435.761C436.839 123.449 437.819 122.861 438.701 121.685C439.681 120.411 440.171 119.186 440.171 118.01V90.668C440.171 89.59 439.681 88.463 438.701 87.287C437.819 86.013 436.839 85.376 435.761 85.376H418.415C417.239 85.376 416.21 85.964 415.328 87.14C414.446 88.316 414.005 89.492 414.005 90.668V118.157C414.005 119.333 414.446 120.509 415.328 121.685C416.21 122.861 417.239 123.449 418.415 123.449ZM394.454 125.654V83.171C394.454 82.289 394.601 81.113 394.895 79.643C396.757 70.431 403.078 65.825 413.858 65.825H440.171C445.953 65.825 450.608 67.295 454.136 70.235C457.762 73.175 459.575 77.487 459.575 83.171V125.654C459.575 131.338 457.762 135.65 454.136 138.59C450.608 141.53 445.953 143 440.171 143H413.858C402.392 143 396.071 138.394 394.895 129.182L394.454 125.654ZM473.122 84.347C473.122 79.937 473.955 76.458 475.621 73.91C479.149 68.52 484.294 65.825 491.056 65.825H506.05C513.596 65.825 518.692 68.128 521.338 72.734C523.984 68.128 529.08 65.825 536.626 65.825H551.62C558.382 65.825 563.527 68.52 567.055 73.91C568.819 76.654 569.701 80.133 569.701 84.347L569.554 143H550.003L550.15 91.256C550.15 87.336 548.337 85.376 544.711 85.376H536.038C535.548 85.376 534.911 85.523 534.127 85.817C532.069 86.601 531.04 88.12 531.04 90.374V143H511.489V90.374C511.489 87.728 510.117 86.062 507.373 85.376H497.965C495.025 85.376 493.212 86.895 492.526 89.933C492.526 90.031 492.477 90.227 492.379 90.521V91.256L492.673 143H473.122V84.347ZM583.229 143V65.825H602.78V143H583.229ZM580.73 46.127C580.534 42.599 581.612 39.61 583.964 37.16C586.414 34.71 589.403 33.485 592.931 33.485C596.263 33.485 599.105 34.71 601.457 37.16C603.907 39.512 605.132 42.354 605.132 45.686C605.132 49.116 603.907 52.007 601.457 54.359C599.105 56.711 596.214 57.887 592.784 57.887C589.452 57.887 586.659 56.76 584.405 54.506C582.151 52.252 580.926 49.459 580.73 46.127ZM616.246 123.008V84.053C616.246 71.901 621.685 65.825 632.563 65.825H668.137V85.376H641.677C638.247 85.376 636.287 86.454 635.797 88.61V118.01C635.797 119.284 636.14 120.313 636.826 121.097C637.708 122.665 639.178 123.449 641.236 123.449H668.137V143H636.679C623.057 143 616.246 136.336 616.246 123.008ZM678.381 143V123.449H713.22C715.376 123.057 716.65 122.028 717.042 120.362C717.14 120.166 717.189 119.921 717.189 119.627V118.01C717.189 115.952 716.111 114.678 713.955 114.188H697.05C694.11 114.188 691.317 113.453 688.671 111.983C682.105 108.259 678.822 103.506 678.822 97.724V83.318C678.822 81.946 679.018 80.427 679.41 78.761C681.468 70.137 687.593 65.825 697.785 65.825H737.181L737.328 85.376H701.754C701.362 85.474 700.872 85.67 700.284 85.964C698.814 87.434 698.079 88.463 698.079 89.051V90.815C698.079 92.775 699.647 94 702.783 94.49H720.276C724.686 94.49 728.606 96.254 732.036 99.782C735.564 103.31 737.279 107.279 737.181 111.689L736.887 125.801C736.789 128.937 735.858 131.975 734.094 134.915C732.428 137.757 730.272 139.864 727.626 141.236C725.372 142.412 722.383 143 718.659 143H678.381Z" fill="#003805"/>
<g filter="url(#filter0_f_12_13)">
<path d="M13.6268 51.297V29.1H79.9238V51.297H57.7268V132H35.5298V51.297H13.6268ZM112.07 112.449H129.416C130.494 112.449 131.474 111.861 132.356 110.685C133.336 109.411 133.826 108.186 133.826 107.01V79.668C133.826 78.59 133.336 77.463 132.356 76.287C131.474 75.013 130.494 74.376 129.416 74.376H112.07C110.894 74.376 109.865 74.964 108.983 76.14C108.101 77.316 107.66 78.492 107.66 79.668V107.157C107.66 108.333 108.101 109.509 108.983 110.685C109.865 111.861 110.894 112.449 112.07 112.449ZM88.1087 114.654V72.171C88.1087 71.289 88.2557 70.113 88.5497 68.643C90.4117 59.431 96.7327 54.825 107.513 54.825H133.826C139.608 54.825 144.263 56.295 147.791 59.235C151.417 62.175 153.23 66.487 153.23 72.171V114.654C153.23 120.338 151.417 124.65 147.791 127.59C144.263 130.53 139.608 132 133.826 132H107.513C96.0467 132 89.7257 127.394 88.5497 118.182L88.1087 114.654ZM166.777 132V26.013H186.328V132H166.777ZM188.827 85.548L207.055 54.825H229.693L207.79 92.163L231.898 132H208.819L188.386 97.896C187.014 95.642 186.573 93.094 187.063 90.252C187.357 88.586 187.945 87.018 188.827 85.548ZM240.277 72.906C240.277 71.632 240.424 70.309 240.718 68.937C242.776 59.529 248.999 54.825 259.387 54.825H285.994C296.774 54.825 302.85 59.97 304.222 70.26C304.32 70.946 304.369 72.024 304.369 73.494V88.929L260.122 105.687V107.01C260.122 110.636 261.396 112.449 263.944 112.449H304.222V132H261.298C256.202 132 252.331 131.265 249.685 129.795C243.413 126.365 240.277 120.436 240.277 112.008V72.906ZM284.524 79.227V78.492C284.132 76.924 282.907 75.944 280.849 75.552C280.555 75.454 280.212 75.405 279.82 75.405H266.149C263.307 75.405 261.347 76.385 260.269 78.345C259.975 78.835 259.828 79.521 259.828 80.403V88.341L284.524 79.227ZM316.935 132V73.2C316.935 72.22 317.033 71.044 317.229 69.672C318.699 59.774 324.726 54.825 335.31 54.825H362.505C373.089 54.825 379.116 59.774 380.586 69.672C380.782 71.044 380.88 72.22 380.88 73.2V132H361.329V79.815C361.329 79.325 361.28 78.933 361.182 78.639C360.79 75.797 358.683 74.376 354.861 74.376H342.807C338.985 74.376 336.878 75.797 336.486 78.639V132H316.935ZM418.415 112.449H435.761C436.839 112.449 437.819 111.861 438.701 110.685C439.681 109.411 440.171 108.186 440.171 107.01V79.668C440.171 78.59 439.681 77.463 438.701 76.287C437.819 75.013 436.839 74.376 435.761 74.376H418.415C417.239 74.376 416.21 74.964 415.328 76.14C414.446 77.316 414.005 78.492 414.005 79.668V107.157C414.005 108.333 414.446 109.509 415.328 110.685C416.21 111.861 417.239 112.449 418.415 112.449ZM394.454 114.654V72.171C394.454 71.289 394.601 70.113 394.895 68.643C396.757 59.431 403.078 54.825 413.858 54.825H440.171C445.953 54.825 450.608 56.295 454.136 59.235C457.762 62.175 459.575 66.487 459.575 72.171V114.654C459.575 120.338 457.762 124.65 454.136 127.59C450.608 130.53 445.953 132 440.171 132H413.858C402.392 132 396.071 127.394 394.895 118.182L394.454 114.654ZM473.122 73.347C473.122 68.937 473.955 65.458 475.621 62.91C479.149 57.52 484.294 54.825 491.056 54.825H506.05C513.596 54.825 518.692 57.128 521.338 61.734C523.984 57.128 529.08 54.825 536.626 54.825H551.62C558.382 54.825 563.527 57.52 567.055 62.91C568.819 65.654 569.701 69.133 569.701 73.347L569.554 132H550.003L550.15 80.256C550.15 76.336 548.337 74.376 544.711 74.376H536.038C535.548 74.376 534.911 74.523 534.127 74.817C532.069 75.601 531.04 77.12 531.04 79.374V132H511.489V79.374C511.489 76.728 510.117 75.062 507.373 74.376H497.965C495.025 74.376 493.212 75.895 492.526 78.933C492.526 79.031 492.477 79.227 492.379 79.521V80.256L492.673 132H473.122V73.347ZM583.229 132V54.825H602.78V132H583.229ZM580.73 35.127C580.534 31.599 581.612 28.61 583.964 26.16C586.414 23.71 589.403 22.485 592.931 22.485C596.263 22.485 599.105 23.71 601.457 26.16C603.907 28.512 605.132 31.354 605.132 34.686C605.132 38.116 603.907 41.007 601.457 43.359C599.105 45.711 596.214 46.887 592.784 46.887C589.452 46.887 586.659 45.76 584.405 43.506C582.151 41.252 580.926 38.459 580.73 35.127ZM616.246 112.008V73.053C616.246 60.901 621.685 54.825 632.563 54.825H668.137V74.376H641.677C638.247 74.376 636.287 75.454 635.797 77.61V107.01C635.797 108.284 636.14 109.313 636.826 110.097C637.708 111.665 639.178 112.449 641.236 112.449H668.137V132H636.679C623.057 132 616.246 125.336 616.246 112.008ZM678.381 132V112.449H713.22C715.376 112.057 716.65 111.028 717.042 109.362C717.14 109.166 717.189 108.921 717.189 108.627V107.01C717.189 104.952 716.111 103.678 713.955 103.188H697.05C694.11 103.188 691.317 102.453 688.671 100.983C682.105 97.259 678.822 92.506 678.822 86.724V72.318C678.822 70.946 679.018 69.427 679.41 67.761C681.468 59.137 687.593 54.825 697.785 54.825H737.181L737.328 74.376H701.754C701.362 74.474 700.872 74.67 700.284 74.964C698.814 76.434 698.079 77.463 698.079 78.051V79.815C698.079 81.775 699.647 83 702.783 83.49H720.276C724.686 83.49 728.606 85.254 732.036 88.782C735.564 92.31 737.279 96.279 737.181 100.689L736.887 114.801C736.789 117.937 735.858 120.975 734.094 123.915C732.428 126.757 730.272 128.864 727.626 130.236C725.372 131.412 722.383 132 718.659 132H678.381Z" fill="#8BFD01" fill-opacity="0.62"/>
</g>
<path d="M13.6268 51.297V29.1H79.9238V51.297H57.7268V132H35.5298V51.297H13.6268ZM112.07 112.449H129.416C130.494 112.449 131.474 111.861 132.356 110.685C133.336 109.411 133.826 108.186 133.826 107.01V79.668C133.826 78.59 133.336 77.463 132.356 76.287C131.474 75.013 130.494 74.376 129.416 74.376H112.07C110.894 74.376 109.865 74.964 108.983 76.14C108.101 77.316 107.66 78.492 107.66 79.668V107.157C107.66 108.333 108.101 109.509 108.983 110.685C109.865 111.861 110.894 112.449 112.07 112.449ZM88.1087 114.654V72.171C88.1087 71.289 88.2557 70.113 88.5497 68.643C90.4117 59.431 96.7327 54.825 107.513 54.825H133.826C139.608 54.825 144.263 56.295 147.791 59.235C151.417 62.175 153.23 66.487 153.23 72.171V114.654C153.23 120.338 151.417 124.65 147.791 127.59C144.263 130.53 139.608 132 133.826 132H107.513C96.0467 132 89.7257 127.394 88.5497 118.182L88.1087 114.654ZM166.777 132V26.013H186.328V132H166.777ZM188.827 85.548L207.055 54.825H229.693L207.79 92.163L231.898 132H208.819L188.386 97.896C187.014 95.642 186.573 93.094 187.063 90.252C187.357 88.586 187.945 87.018 188.827 85.548ZM240.277 72.906C240.277 71.632 240.424 70.309 240.718 68.937C242.776 59.529 248.999 54.825 259.387 54.825H285.994C296.774 54.825 302.85 59.97 304.222 70.26C304.32 70.946 304.369 72.024 304.369 73.494V88.929L260.122 105.687V107.01C260.122 110.636 261.396 112.449 263.944 112.449H304.222V132H261.298C256.202 132 252.331 131.265 249.685 129.795C243.413 126.365 240.277 120.436 240.277 112.008V72.906ZM284.524 79.227V78.492C284.132 76.924 282.907 75.944 280.849 75.552C280.555 75.454 280.212 75.405 279.82 75.405H266.149C263.307 75.405 261.347 76.385 260.269 78.345C259.975 78.835 259.828 79.521 259.828 80.403V88.341L284.524 79.227ZM316.935 132V73.2C316.935 72.22 317.033 71.044 317.229 69.672C318.699 59.774 324.726 54.825 335.31 54.825H362.505C373.089 54.825 379.116 59.774 380.586 69.672C380.782 71.044 380.88 72.22 380.88 73.2V132H361.329V79.815C361.329 79.325 361.28 78.933 361.182 78.639C360.79 75.797 358.683 74.376 354.861 74.376H342.807C338.985 74.376 336.878 75.797 336.486 78.639V132H316.935ZM418.415 112.449H435.761C436.839 112.449 437.819 111.861 438.701 110.685C439.681 109.411 440.171 108.186 440.171 107.01V79.668C440.171 78.59 439.681 77.463 438.701 76.287C437.819 75.013 436.839 74.376 435.761 74.376H418.415C417.239 74.376 416.21 74.964 415.328 76.14C414.446 77.316 414.005 78.492 414.005 79.668V107.157C414.005 108.333 414.446 109.509 415.328 110.685C416.21 111.861 417.239 112.449 418.415 112.449ZM394.454 114.654V72.171C394.454 71.289 394.601 70.113 394.895 68.643C396.757 59.431 403.078 54.825 413.858 54.825H440.171C445.953 54.825 450.608 56.295 454.136 59.235C457.762 62.175 459.575 66.487 459.575 72.171V114.654C459.575 120.338 457.762 124.65 454.136 127.59C450.608 130.53 445.953 132 440.171 132H413.858C402.392 132 396.071 127.394 394.895 118.182L394.454 114.654ZM473.122 73.347C473.122 68.937 473.955 65.458 475.621 62.91C479.149 57.52 484.294 54.825 491.056 54.825H506.05C513.596 54.825 518.692 57.128 521.338 61.734C523.984 57.128 529.08 54.825 536.626 54.825H551.62C558.382 54.825 563.527 57.52 567.055 62.91C568.819 65.654 569.701 69.133 569.701 73.347L569.554 132H550.003L550.15 80.256C550.15 76.336 548.337 74.376 544.711 74.376H536.038C535.548 74.376 534.911 74.523 534.127 74.817C532.069 75.601 531.04 77.12 531.04 79.374V132H511.489V79.374C511.489 76.728 510.117 75.062 507.373 74.376H497.965C495.025 74.376 493.212 75.895 492.526 78.933C492.526 79.031 492.477 79.227 492.379 79.521V80.256L492.673 132H473.122V73.347ZM583.229 132V54.825H602.78V132H583.229ZM580.73 35.127C580.534 31.599 581.612 28.61 583.964 26.16C586.414 23.71 589.403 22.485 592.931 22.485C596.263 22.485 599.105 23.71 601.457 26.16C603.907 28.512 605.132 31.354 605.132 34.686C605.132 38.116 603.907 41.007 601.457 43.359C599.105 45.711 596.214 46.887 592.784 46.887C589.452 46.887 586.659 45.76 584.405 43.506C582.151 41.252 580.926 38.459 580.73 35.127ZM616.246 112.008V73.053C616.246 60.901 621.685 54.825 632.563 54.825H668.137V74.376H641.677C638.247 74.376 636.287 75.454 635.797 77.61V107.01C635.797 108.284 636.14 109.313 636.826 110.097C637.708 111.665 639.178 112.449 641.236 112.449H668.137V132H636.679C623.057 132 616.246 125.336 616.246 112.008ZM678.381 132V112.449H713.22C715.376 112.057 716.65 111.028 717.042 109.362C717.14 109.166 717.189 108.921 717.189 108.627V107.01C717.189 104.952 716.111 103.678 713.955 103.188H697.05C694.11 103.188 691.317 102.453 688.671 100.983C682.105 97.259 678.822 92.506 678.822 86.724V72.318C678.822 70.946 679.018 69.427 679.41 67.761C681.468 59.137 687.593 54.825 697.785 54.825H737.181L737.328 74.376H701.754C701.362 74.474 700.872 74.67 700.284 74.964C698.814 76.434 698.079 77.463 698.079 78.051V79.815C698.079 81.775 699.647 83 702.783 83.49H720.276C724.686 83.49 728.606 85.254 732.036 88.782C735.564 92.31 737.279 96.279 737.181 100.689L736.887 114.801C736.789 117.937 735.858 120.975 734.094 123.915C732.428 126.757 730.272 128.864 727.626 130.236C725.372 131.412 722.383 132 718.659 132H678.381Z" fill="#8BFD01"/>
<defs>
<filter id="filter0_f_12_13" x="0.626709" y="9.48511" width="749.702" height="135.515" filterUnits="userSpaceOnUse" color-interpolation-filters="sRGB">
<feFlood flood-opacity="0" result="BackgroundImageFix"/>
<feBlend mode="normal" in="SourceGraphic" in2="BackgroundImageFix" result="shape"/>
<feGaussianBlur stdDeviation="6.5" result="effect1_foregroundBlur_12_13"/>
</filter>
</defs>
</svg>
